<svg xmlns="http://www.w3.org/2000/svg" width="165" height="45" viewBox="0 0 165 45">
    <title>weCity</title>
    <path fill="#FFF" fill-rule="evenodd" d="M17.792 1.28c-1.8 0-2.46.78-2.46 1.68v30.78c0 4.08-1.86 6.66-5.1 6.66-3.24 0-5.1-2.58-5.1-6.66V2.96c0-.9-.66-1.68-2.46-1.68-1.8 0-2.46.78-2.46 1.68V33.5c0 6.78 3.66 11.22 9.96 11.22 3.54 0 6-1.38 7.62-3.84 1.62 2.46 4.08 3.84 7.62 3.84 6.3 0 9.96-4.44 9.96-11.22V2.96c0-.9-.66-1.68-2.46-1.68-1.8 0-2.46.78-2.46 1.68v30.78c0 4.08-1.86 6.66-5.1 6.66-3.24 0-5.1-2.58-5.1-6.66V2.96c0-.9-.66-1.68-2.46-1.68zm30.336 28.288c0-1.23 1.312-1.886 2.952-2.378l8.282-2.624c5.74-1.804 7.626-5.904 7.626-11.07v-1.312C66.988 4.968 61.986.868 55.18.868s-11.808 4.1-11.808 11.316v21.484c0 7.216 5.002 11.316 11.808 11.316s11.808-4.1 11.808-11.316v-2.46c0-1.066-.656-1.968-2.378-1.968s-2.378.902-2.378 1.968v2.296c0 4.92-3.034 7.216-7.052 7.216s-7.052-2.296-7.052-7.216v-3.936zm0-17.22c0-4.92 3.034-7.216 7.052-7.216s7.052 2.296 7.052 7.216v1.394c0 3.28-1.394 5.658-4.1 6.478l-8.2 2.624c-.82.246-1.476.574-1.804 1.23V12.348zM74.568 33.5c0 6.78 4.26 11.22 10.92 11.22s10.92-4.44 10.92-11.22v-2.64c0-.9-.66-1.68-2.46-1.68-1.8 0-2.46.78-2.46 1.68v2.88c0 4.08-2.28 6.66-6 6.66s-6-2.58-6-6.66V12.02c0-4.08 2.28-6.66 6-6.66s6 2.58 6 6.66v2.88c0 .9.66 1.68 2.46 1.68 1.8 0 2.46-.78 2.46-1.68v-2.64c0-6.78-4.26-11.22-10.92-11.22s-10.92 4.44-10.92 11.22V33.5zm29.82 9.3c0 .9.66 1.68 2.46 1.68 1.8 0 2.46-.78 2.46-1.68V2.96c0-.9-.66-1.68-2.46-1.68-1.8 0-2.46.78-2.46 1.68V42.8zm11.94-41.04c-.9 0-1.56.66-1.56 2.16s.66 2.16 1.56 2.16h7.44V42.8c0 .9.66 1.68 2.46 1.68 1.8 0 2.46-.78 2.46-1.68V6.08h7.44c.9 0 1.56-.66 1.56-2.16s-.66-2.16-1.56-2.16h-19.8zm36.84 42.72c1.8 0 2.46-.78 2.46-1.68V29.3c5.28-.96 8.46-4.98 8.46-10.92V2.96c0-.9-.66-1.68-2.46-1.68-1.8 0-2.46.78-2.46 1.68v15.66c0 4.14-2.28 6.54-6 6.54s-6-2.4-6-6.54V2.96c0-.9-.66-1.68-2.46-1.68-1.8 0-2.46.78-2.46 1.68v15.42c0 5.94 3.18 9.96 8.46 10.92v13.5c0 .9.66 1.68 2.46 1.68z"/>
</svg>